name D:\school\WTK\thesis\model\3dpredictsim\Results\test_WL_v2\Fal_s1_bCst_PF_linear_ls135_k100_ig24.mot
datacolumns 128
datarows 4
range 1.92219055 1.96063436
endheader
time	pelvis_tilt	pelvis_list	pelvis_rotation	pelvis_tx	pelvis_ty	pelvis_tz	hip_flexion_l	hip_adduction_l	hip_rotation_l	hip_flexion_r	hip_adduction_r	hip_rotation_r	knee_angle_l	knee_angle_r	ankle_angle_l	ankle_angle_r	subtalar_angle_l	subtalar_angle_r	tmt_angle_l	tmt_angle_r	mtp_angle_l	mtp_angle_r	lumbar_extension	lumbar_bending	lumbar_rotation	arm_flex_l	arm_add_l	arm_rot_l	arm_flex_r	arm_add_r	arm_rot_r	elbow_flex_l	elbow_flex_r	pro_sup_l	pro_sup_r	glut_med1_l/activation	glut_med2_l/activation	glut_med3_l/activation	glut_min1_l/activation	glut_min2_l/activation	glut_min3_l/activation	semimem_l/activation	semiten_l/activation	bifemlh_l/activation	bifemsh_l/activation	sar_l/activation	add_long_l/activation	add_brev_l/activation	add_mag1_l/activation	add_mag2_l/activation	add_mag3_l/activation	tfl_l/activation	pect_l/activation	grac_l/activation	glut_max1_l/activation	glut_max2_l/activation	glut_max3_l/activation	iliacus_l/activation	psoas_l/activation	quad_fem_l/activation	gem_l/activation	peri_l/activation	rect_fem_l/activation	vas_med_l/activation	vas_int_l/activation	vas_lat_l/activation	med_gas_l/activation	lat_gas_l/activation	soleus_l/activation	tib_post_l/activation	flex_dig_l/activation	flex_hal_l/activation	tib_ant_l/activation	per_brev_l/activation	per_long_l/activation	per_tert_l/activation	ext_dig_l/activation	ext_hal_l/activation	ercspn_l/activation	intobl_l/activation	extobl_l/activation	glut_med1_r/activation	glut_med2_r/activation	glut_med3_r/activation	glut_min1_r/activation	glut_min2_r/activation	glut_min3_r/activation	semimem_r/activation	semiten_r/activation	bifemlh_r/activation	bifemsh_r/activation	sar_r/activation	add_long_r/activation	add_brev_r/activation	add_mag1_r/activation	add_mag2_r/activation	add_mag3_r/activation	tfl_r/activation	pect_r/activation	grac_r/activation	glut_max1_r/activation	glut_max2_r/activation	glut_max3_r/activation	iliacus_r/activation	psoas_r/activation	quad_fem_r/activation	gem_r/activation	peri_r/activation	rect_fem_r/activation	vas_med_r/activation	vas_int_r/activation	vas_lat_r/activation	med_gas_r/activation	lat_gas_r/activation	soleus_r/activation	tib_post_r/activation	flex_dig_r/activation	flex_hal_r/activation	tib_ant_r/activation	per_brev_r/activation	per_long_r/activation	per_tert_r/activation	ext_dig_r/activation	ext_hal_r/activation	ercspn_r/activation	intobl_r/activation	extobl_r/activation	
          1.92219055	         -2.93017641	          3.27341200	         -8.42651522	          2.40273819	          0.92120654	          0.00058214	         26.99484042	          4.61497201	          0.04297211	        -14.75253004	         -4.11101554	          8.15479264	         -7.87410230	        -18.22942238	          6.71434597	        -12.95488053	         -5.67325148	         20.26728829	         -4.12834846	         -0.74500073	         -3.41926801	         12.41313619	         -1.15299597	         -1.29226679	          3.13346770	        -11.71171979	        -13.45001322	          3.58806313	          2.97805360	        -13.55803705	         16.74566584	         18.25177615	         53.31223595	         86.51662706	         86.51662706	          0.05000002	          0.05000006	          0.10818105	          0.05000008	          0.05000009	          0.05000013	          0.16434433	          0.11005639	          0.12436691	          0.05006740	          0.05000209	          0.13161429	          0.35060368	          0.35122283	          0.27692463	          0.14219400	          0.05000043	          0.07373081	          0.19164967	          0.10476645	          0.14470055	          0.15089972	          0.05000028	          0.05000044	          0.45993901	          0.24633453	          0.09175558	          0.05000035	          0.10286524	          0.10346906	          0.08161130	          0.07033449	          0.07137621	          0.06458669	          0.06067894	          0.05200811	          0.06067881	          0.54151806	          0.27137853	          0.24490351	          0.05003020	          0.55319254	          0.21965565	          0.05000001	          0.08921157	          0.08507209	          0.17127826	          0.06533917	          0.05055626	          0.18189407	          0.13413476	          0.07765016	          0.05000321	          0.05000368	          0.05718512	          0.05000012	          0.08261400	          0.07363874	          0.05000128	          0.26291346	          0.06069927	          0.11206315	          0.20541302	          0.08032237	          0.05000073	          0.06067396	          0.06067876	          0.06067918	          0.34917671	          0.39908796	          0.06067878	          0.05860347	          0.05000046	          0.27650993	          0.13142276	          0.12533825	          0.08979641	          0.15826648	          0.23498687	          0.19343801	          0.14786018	          0.07364325	          0.12053973	          0.07280350	          0.32072531	          0.26689427	          0.05000020	          0.09950836	          0.05000519	          0.08212760	          0.07363837	          0.07567491	
          1.93500515	         -2.92674228	          3.36844580	         -8.62859731	          2.42387468	          0.91925829	          0.00060429	         25.88167919	          4.98440382	          0.39885193	        -14.78109162	         -4.40942270	          7.81827039	         -8.18466677	        -19.73315762	          6.13407317	        -14.17436945	         -6.01828821	         20.37910229	         -4.21294734	         -2.99045863	         -3.36684535	         13.48851424	         -0.83914843	         -1.52075056	          3.23324472	        -12.87546852	        -13.46143162	          3.69548356	          2.23918063	        -13.62219681	         16.91203154	         17.86636224	         54.58044601	         86.51662706	         86.51662706	          0.31452608	          0.35574404	          0.40276760	          0.48766746	          0.32134789	          0.27410392	          0.13752501	          0.10961462	          0.11173743	          0.05000982	          0.05000052	          0.10845162	          0.28890119	          0.28941160	          0.22819446	          0.16749315	          0.05000040	          0.06075550	          0.15792168	          0.24301248	          0.19976154	          0.16148301	          0.05000028	          0.05000020	          0.37899467	          0.20298242	          0.23255161	          0.05000012	          0.08479923	          0.08638319	          0.06725136	          0.05795638	          0.05881478	          0.05322013	          0.05000013	          0.05000037	          0.05000042	          0.65939391	          0.36123581	          0.20180330	          0.48769489	          0.65219430	          0.34877696	          0.07310354	          0.10762132	          0.07010031	          0.27935219	          0.05384027	          0.05000010	          0.23034931	          0.11052882	          0.06398480	          0.05006877	          0.05000068	          0.05000039	          0.06067863	          0.06807535	          0.06067988	          0.09672581	          0.21664362	          0.05001736	          0.09234146	          0.16926279	          0.07348952	          0.05004404	          0.05000123	          0.05000092	          0.05000053	          0.28772555	          0.39443442	          0.05000017	          0.05000071	          0.05000070	          0.22784712	          0.10829383	          0.10328014	          0.07399325	          0.13041327	          0.19363171	          0.15939496	          0.12183846	          0.06068297	          0.09932619	          0.12894104	          0.26428135	          0.21992377	          0.11288028	          0.15431008	          0.05000042	          0.09207883	          0.06067880	          0.06235694	
          1.94781976	         -2.91929469	          3.46647079	         -8.78215108	          2.44480332	          0.91717726	          0.00058999	         24.83572507	          5.33629388	          0.75382929	        -14.60512849	         -4.66565641	          7.49846292	         -8.55850741	        -21.60665719	          5.45885789	        -15.27852049	         -6.38812404	         20.33244391	         -4.18010222	         -4.46628337	         -3.34303627	         12.36757067	         -0.55642164	         -1.75909858	          3.31696425	        -13.90792297	        -13.48599325	          3.96661078	          1.51507346	        -13.68477243	         17.01610090	         17.36839210	         55.72639384	         86.51662706	         86.51662706	          0.44941429	          0.50886959	          0.53449838	          0.40184334	          0.26479501	          0.33459276	          0.11332467	          0.11332726	          0.09790595	          0.05000116	          0.05000061	          0.08936532	          0.23805768	          0.23847864	          0.18821237	          0.18879580	          0.05000041	          0.05006370	          0.13012940	          0.33777824	          0.25866627	          0.20088097	          0.05000008	          0.05000009	          0.31229573	          0.16725980	          0.19162556	          0.05000011	          0.17216995	          0.17691262	          0.13250786	          0.05000002	          0.05000004	          0.05000000	          0.05000006	          0.05000020	          0.05000015	          0.74086276	          0.32559916	          0.18973708	          0.71265324	          0.72223369	          0.43686731	          0.09347744	          0.08868112	          0.05776341	          0.23018954	          0.05000096	          0.05000071	          0.18981050	          0.09107714	          0.05272461	          0.05000106	          0.05000011	          0.05000019	          0.05000005	          0.05609500	          0.05000105	          0.19764251	          0.17864505	          0.12107051	          0.13168921	          0.13947448	          0.06055677	          0.05000025	          0.05011923	          0.05502568	          0.08392832	          0.23708895	          0.34308503	          0.05000111	          0.05000481	          0.05000143	          0.18774844	          0.10642654	          0.08660289	          0.06097157	          0.10746192	          0.15955462	          0.13134313	          0.13339365	          0.05000381	          0.08184620	          0.24527231	          0.21777065	          0.18121952	          0.09301477	          0.22390545	          0.05540591	          0.12223453	          0.05000002	          0.05138279	
          1.96063436	         -2.91029396	          3.57147869	         -8.88942714	          2.46518815	          0.91531939	          0.00052818	         23.95192949	          5.71428849	          1.11146794	        -14.17181247	         -4.88325434	          7.21647010	         -9.12107951	        -23.87221491	          4.61768955	        -16.09675262	         -6.79090391	         20.19644836	         -4.26611501	         -5.45730897	         -3.33505625	          9.22861691	         -0.32622199	         -2.01545314	          3.38662859	        -14.73674946	        -13.51321092	          4.37943622	          0.88744457	        -13.72422366	         17.10129104	         16.71981799	         56.61902920	         86.51662706	         86.51662706	          0.57659772	          0.65131779	          0.66438887	          0.41927552	          0.40474614	          0.50084480	          0.09338106	          0.10628213	          0.08816161	          0.05000055	          0.05000027	          0.07363804	          0.19616216	          0.19651187	          0.24432365	          0.21063404	          0.05000036	          0.05000389	          0.10722837	          0.39940279	          0.30444735	          0.24122989	          0.05000008	          0.05000008	          0.25733504	          0.13782397	          0.19386803	          0.05000008	          0.30520422	          0.30990567	          0.24541256	          0.05000007	          0.05000017	          0.05000002	          0.14270097	          0.08075842	          0.06766769	          0.84443415	          0.26829718	          0.15634538	          0.58723389	          0.59512854	          0.42541400	          0.11047100	          0.07307419	          0.05000007	          0.18967913	          0.05000376	          0.05000092	          0.15640626	          0.07504889	          0.05000071	          0.07372214	          0.10782294	          0.11898268	          0.06864867	          0.05000067	          0.16773303	          0.16286224	          0.19409358	          0.09977565	          0.10851413	          0.11492859	          0.05000092	          0.08895714	          0.06052529	          0.06067848	          0.06915846	          0.19536399	          0.33872032	          0.05000207	          0.05000450	          0.05000018	          0.15470670	          0.08769660	          0.07136171	          0.05024123	          0.08854977	          0.13147476	          0.10822814	          0.17753483	          0.17028771	          0.16612996	          0.41498291	          0.17944533	          0.14932680	          0.07664520	          0.23289034	          0.24379585	          0.13884790	          0.05000005	          0.05000004	
